<svg width="168" height="29" viewBox="0 0 168 29" fill="none" xmlns="http://www.w3.org/2000/svg">
<path d="M85.912 21.9999H80.152V7.75987H75V3.75987H91.064V7.75987H85.912V21.9999Z" fill="#070707"/>
<path d="M107.339 7.27987V21.9999H102.89L102.283 19.5359C100.747 21.3919 98.9118 22.3199 96.7785 22.3199C96.0105 22.3199 95.2852 22.2132 94.6025 21.9999C93.9412 21.7865 93.4398 21.4772 93.0985 21.0719C92.9065 20.8372 92.7572 20.2505 92.6505 19.3119C92.5652 18.3732 92.5225 16.9439 92.5225 15.0239V7.27987H97.9945V14.9599C97.9945 15.3865 98.0052 15.8879 98.0265 16.4639C98.0478 17.0399 98.1118 17.4025 98.2185 17.5519C98.3678 17.7652 98.7945 17.8719 99.4985 17.8719L100.01 17.8399C100.608 17.8185 101.227 17.6799 101.867 17.4239V7.27987H107.339Z" fill="#070707"/>
<path d="M124.202 8.20787C124.394 8.44254 124.533 9.0292 124.618 9.96787C124.725 10.9065 124.778 12.3359 124.778 14.2559V21.9999H119.306V14.3199V13.0079C119.306 12.3252 119.253 11.8985 119.146 11.7279C118.976 11.5145 118.581 11.4079 117.962 11.4079C117.664 11.4079 117.44 11.4185 117.29 11.4399C116.693 11.4612 116.074 11.5999 115.434 11.8559V21.9999H109.962V7.27987H114.41L115.018 9.74387C116.554 7.88787 118.389 6.95987 120.522 6.95987C121.29 6.95987 122.005 7.06653 122.666 7.27987C123.349 7.4932 123.861 7.80254 124.202 8.20787Z" fill="#070707"/>
<path d="M130.154 5.45587C129.429 5.45587 128.799 5.21053 128.266 4.71987C127.754 4.2292 127.498 3.64253 127.498 2.95987C127.498 2.2772 127.754 1.69053 128.266 1.19987C128.799 0.709201 129.429 0.463867 130.154 0.463867C130.879 0.463867 131.498 0.709201 132.01 1.19987C132.522 1.69053 132.778 2.2772 132.778 2.95987C132.778 3.64253 132.522 4.2292 132.01 4.71987C131.498 5.21053 130.879 5.45587 130.154 5.45587ZM127.402 7.27987H132.874V21.9999H127.402V7.27987Z" fill="#070707"/>
<path d="M149.827 8.20787C150.019 8.44254 150.158 9.0292 150.243 9.96787C150.35 10.9065 150.403 12.3359 150.403 14.2559V21.9999H144.931V14.3199V13.0079C144.931 12.3252 144.878 11.8985 144.771 11.7279C144.601 11.5145 144.206 11.4079 143.587 11.4079C143.289 11.4079 143.065 11.4185 142.915 11.4399C142.318 11.4612 141.699 11.5999 141.059 11.8559V21.9999H135.587V7.27987H140.035L140.643 9.74387C142.179 7.88787 144.014 6.95987 146.147 6.95987C146.915 6.95987 147.63 7.06653 148.291 7.27987C148.974 7.4932 149.486 7.80254 149.827 8.20787Z" fill="#070707"/>
<path d="M160.611 7.02387C161.614 7.02387 162.659 7.09853 163.747 7.24787C164.835 7.37587 166.104 7.5572 167.555 7.79187V20.5279C167.555 23.5785 166.542 25.9465 164.515 27.6319C164.259 27.8452 163.683 28.0265 162.787 28.1759C161.891 28.3252 160.878 28.3999 159.747 28.3999C157.294 28.3999 155.352 28.0799 153.923 27.4399C153.902 26.9705 153.934 26.3519 154.019 25.5839C154.126 24.8159 154.232 24.2079 154.339 23.7599C155.875 23.9945 157.379 24.1119 158.851 24.1119C159.598 24.1119 160.227 24.0692 160.739 23.9839C161.272 23.9199 161.603 23.8132 161.731 23.6639C161.902 23.4932 162.03 22.8532 162.115 21.7439C162.136 21.4452 162.147 21.0079 162.147 20.4319V19.6319C161.614 20.4212 160.931 20.9865 160.099 21.3279C159.267 21.6692 158.52 21.8399 157.859 21.8399C156.067 21.8399 154.712 21.2532 153.795 20.0799C152.878 18.9065 152.419 17.1892 152.419 14.9279C152.419 13.4345 152.622 12.0372 153.027 10.7359C153.454 9.4132 154.03 8.49587 154.755 7.98387C155.224 7.66387 155.982 7.4292 157.027 7.27987C158.094 7.1092 159.288 7.02387 160.611 7.02387ZM159.939 17.8399C160.728 17.8399 161.443 17.7119 162.083 17.4559V10.7679C161.848 10.7252 161.496 10.6825 161.027 10.6399C160.814 10.6185 160.494 10.6079 160.067 10.6079C159.406 10.6079 158.99 10.6719 158.819 10.7999C158.584 10.9705 158.392 11.4505 158.243 12.2399C158.115 13.0079 158.051 13.8185 158.051 14.6719C158.051 15.8452 158.179 16.6665 158.435 17.1359C158.712 17.6052 159.214 17.8399 159.939 17.8399Z" fill="#070707"/>
<path d="M5.8488 8.6878C5.8488 9.1358 6.0728 9.4878 6.5208 9.7438C6.99013 9.9998 7.71546 10.2771 8.6968 10.5758C9.87013 10.9598 10.8301 11.3331 11.5768 11.6958C12.3448 12.0585 13.0061 12.6238 13.5608 13.3918C14.1368 14.1598 14.4248 15.1625 14.4248 16.3998C14.4248 20.3678 11.8435 22.3518 6.6808 22.3518C5.82746 22.3518 4.78213 22.2771 3.5448 22.1278C2.3288 21.9785 1.21946 21.7865 0.216797 21.5518C0.259464 21.1038 0.344797 20.4531 0.472797 19.5998C0.62213 18.7251 0.760797 18.0745 0.888797 17.6478C1.63546 17.7545 2.75546 17.8825 4.2488 18.0318C5.76346 18.1811 6.9048 18.2558 7.6728 18.2558C8.1208 18.2558 8.38746 18.2238 8.4728 18.1598C8.6008 18.0745 8.6968 17.9358 8.7608 17.7438C8.84613 17.5305 8.8888 17.3491 8.8888 17.1998C8.8888 16.7731 8.68613 16.4531 8.2808 16.2398C7.87546 16.0051 7.18213 15.7278 6.2008 15.4078C5.02746 15.0451 4.0568 14.6718 3.2888 14.2878C2.5208 13.9038 1.8488 13.3065 1.2728 12.4958C0.696797 11.6851 0.408797 10.6185 0.408797 9.2958C0.408797 8.35713 0.62213 7.4398 1.0488 6.5438C1.47546 5.62647 1.9128 5.0078 2.3608 4.6878C2.70213 4.45313 3.40613 4.22913 4.4728 4.0158C5.53946 3.80247 6.54213 3.6958 7.4808 3.6958C9.87013 3.6958 11.8221 3.9198 13.3368 4.3678C13.3155 4.79447 13.2408 5.38113 13.1128 6.1278C13.0061 6.87447 12.8888 7.55713 12.7608 8.1758L12.0248 8.1438C9.25146 7.9518 7.4808 7.8558 6.7128 7.8558C6.3928 7.8558 6.21146 7.86647 6.1688 7.8878C6.08346 7.93047 6.0088 8.02647 5.9448 8.1758C5.8808 8.32513 5.8488 8.4958 5.8488 8.6878Z" fill="white"/>
<path d="M39.7895 8.3038C40.1309 8.8158 40.3015 10.7998 40.3015 14.2558V21.9998H34.8295V14.7998V13.0718C34.8295 12.2825 34.7549 11.8131 34.6055 11.6638C34.4349 11.4931 34.0722 11.4078 33.5175 11.4078L33.1335 11.4398C32.4722 11.4825 31.8429 11.6318 31.2455 11.8878C31.2669 12.3358 31.2775 13.1251 31.2775 14.2558V21.9998H25.8055V14.7998V12.8798C25.8055 12.2185 25.7309 11.8131 25.5815 11.6638C25.4109 11.4931 25.0482 11.4078 24.4935 11.4078L24.1095 11.4398C23.5122 11.4611 22.8935 11.5998 22.2535 11.8558V21.9998H16.7815V7.2798H21.2295L21.8055 9.6798C22.5095 8.74114 23.3202 8.05847 24.2375 7.6318C25.1549 7.1838 26.0829 6.9598 27.0215 6.9598C27.8109 6.9598 28.5575 7.07714 29.2615 7.3118C29.9869 7.54647 30.4882 7.87713 30.7655 8.3038C30.8935 8.4958 31.0002 8.8478 31.0855 9.3598C31.7682 8.5278 32.5469 7.9198 33.4216 7.5358C34.2962 7.1518 35.1709 6.9598 36.0455 6.9598C36.8349 6.9598 37.5815 7.07714 38.2855 7.3118C39.0109 7.54647 39.5122 7.87713 39.7895 8.3038Z" fill="white"/>
<path d="M51.612 21.9998L51.1 19.9838C50.1187 21.5838 48.7534 22.3838 47.004 22.3838C45.5747 22.3838 44.4014 21.9891 43.484 21.1998C42.588 20.3891 42.14 19.2585 42.14 17.8078C42.14 16.9118 42.396 16.1331 42.908 15.4718C43.4414 14.7891 44.1667 14.3091 45.084 14.0318C46.2787 13.6905 48.1241 13.4985 50.62 13.4558C50.62 12.0478 50.556 11.3011 50.428 11.2158C50.3214 11.1305 49.98 11.0878 49.404 11.0878C49.0414 11.0878 48.54 11.1091 47.9 11.1518C46.876 11.1945 45.4894 11.3118 43.74 11.5038C43.5694 10.3518 43.4414 9.11447 43.356 7.7918C44.4867 7.55714 45.6707 7.36513 46.908 7.2158C48.1454 7.04513 49.2547 6.9598 50.236 6.9598C51.9427 6.9598 53.2227 7.2478 54.076 7.8238C54.9294 8.37847 55.484 9.11447 55.74 10.0318C55.996 10.9491 56.1134 12.1118 56.092 13.5198L56.06 18.2238L56.156 21.9998H51.612ZM48.86 18.7998C49.4147 18.7998 50.0014 18.6931 50.62 18.4798V16.1118H50.364C48.7854 16.1118 47.9107 16.1971 47.74 16.3678C47.6334 16.4745 47.548 16.6345 47.484 16.8478C47.4414 17.0611 47.42 17.2638 47.42 17.4558C47.42 17.9678 47.5374 18.3198 47.772 18.5118C48.0067 18.7038 48.3694 18.7998 48.86 18.7998Z" fill="white"/>
<path d="M67.6828 6.9598C67.9601 6.9598 68.2481 6.9918 68.5468 7.0558C68.8668 7.1198 69.1015 7.19447 69.2508 7.2798C69.2508 7.74913 69.1975 8.5278 69.0908 9.6158C68.9841 10.6825 68.8881 11.4398 68.8028 11.8878C68.5895 11.8665 68.1948 11.8558 67.6188 11.8558C66.2748 11.8558 65.0801 11.9305 64.0348 12.0798V21.9998H58.5628V7.2798H63.1388L63.7788 9.6478H63.8108C64.4295 8.83713 65.0908 8.18647 65.7948 7.6958C66.4988 7.20513 67.1281 6.9598 67.6828 6.9598Z" fill="white"/>
<path d="M80.5438 21.9998H74.7838V7.7598H69.6318V3.7598H85.6958V7.7598H80.5438V21.9998Z" fill="white"/>
</svg>